<svg xmlns="http://www.w3.org/2000/svg" viewBox="0 0 216.82 118.84"><defs><style>.cls-1{fill:#d85369;}.cls-2{fill:#4755a5;}.cls-3{fill:#fff;}</style></defs><title>Asset 1</title><g id="Layer_2" data-name="Layer 2"><g id="Layer_1-2" data-name="Layer 1"><path class="cls-1" d="M108.41,118.84c-15.89,0-28.16-26.41-34.07-42.16-.87-2.32-1.75-5.59-2.77-9.37-3.48-12.88-9.29-34.42-20-34.42s-16.52,21.54-20,34.42c-1,3.78-1.91,7-2.78,9.37-2.36,6.31-6,15.46-9.76,23.31-7,14.41-11,17.37-14.91,17.37a4.14,4.14,0,0,1-.49-8.26c2-1.31,8-10.13,17.4-35.33.73-2,1.57-5,2.53-8.62,4.36-16.15,11-40.55,28-40.55s23.63,24.4,28,40.55c1,3.58,1.8,6.67,2.53,8.62,8.38,22.34,18.71,36.78,26.31,36.78a4.15,4.15,0,0,1,0,8.29Z"/><path class="cls-2" d="M212.67,118.84c-20.58,0-40.32-9.9-53.26-18.2l-1.85-1.2c-10.17-6.57-34-22-49.15-22-11.33,0-23.16,7-35.68,14.5-5.08,3-10.34,6.15-15.69,8.87l-4,2c-16.43,8.4-28.3,14.48-48.92,14.48a4.15,4.15,0,0,1,0-8.29c18.62,0,29.17-5.4,45.14-13.57l4-2c5.1-2.6,10.24-5.65,15.2-8.61C82,76.8,94.8,69.2,108.41,69.2c17.61,0,42,15.72,53.65,23.28l1.83,1.18c12,7.71,30.21,16.89,48.78,16.89a4.15,4.15,0,1,1,0,8.29Z"/><path class="cls-3" d="M212.67,118.84H0V4.14a4.15,4.15,0,0,1,8.29,0V110.55H212.67a4.15,4.15,0,1,1,0,8.29Z"/></g></g></svg>